<?xml version="1.0" encoding="UTF-8" standalone="no"?>
<!-- Created with Inkscape (http://www.inkscape.org/) -->

<svg
   width="1000"
   height="1000"
   viewBox="0 0 264.58333 264.58334"
   version="1.1"
   id="svg5"
   inkscape:version="1.1 (c68e22c387, 2021-05-23)"
   sodipodi:docname="logo.svg"
   inkscape:export-filename="/home/edoardo/dev/c/clam/img/logo_32.png"
   inkscape:export-xdpi="3.072"
   inkscape:export-ydpi="3.072"
   xmlns:inkscape="http://www.inkscape.org/namespaces/inkscape"
   xmlns:sodipodi="http://sodipodi.sourceforge.net/DTD/sodipodi-0.dtd"
   xmlns="http://www.w3.org/2000/svg"
   xmlns:svg="http://www.w3.org/2000/svg">
  <sodipodi:namedview
     id="namedview7"
     pagecolor="#505050"
     bordercolor="#eeeeee"
     borderopacity="1"
     inkscape:pageshadow="0"
     inkscape:pageopacity="0"
     inkscape:pagecheckerboard="true"
     inkscape:document-units="mm"
     showgrid="false"
     units="px"
     width="1000px"
     inkscape:zoom="0.90509668"
     inkscape:cx="414.87281"
     inkscape:cy="506.57572"
     inkscape:window-width="1920"
     inkscape:window-height="1014"
     inkscape:window-x="0"
     inkscape:window-y="0"
     inkscape:window-maximized="1"
     inkscape:current-layer="layer1" />
  <defs
     id="defs2" />
  <g
     inkscape:label="Livello 1"
     inkscape:groupmode="layer"
     id="layer1">
    <path
       id="path345"
       style="fill:#000000;stroke:#ffffff;stroke-width:0.529168;stroke-opacity:0"
       inkscape:transform-center-x="3.3342575e-06"
       d="m 132.29168,264.31879 c -4.64067,0 -18.56153,-18.67134 -21.84297,-21.9604 L 22.479688,154.18531 0.57011094,132.29169 C -2.7163278,129.00764 21.574341,114.96011 22.47969,110.39805 23.385038,105.836 8.8209121,86.064462 10.596817,81.767104 c 1.775905,-4.297359 26.022538,-7.955679 28.600753,-11.8232 2.578213,-3.867522 -3.328553,-27.720421 -0.04711,-31.009476 3.281445,-3.289056 27.079151,2.631405 30.937721,0.04721 3.858571,-2.584194 7.508414,-26.887066 11.795827,-28.667089 4.287416,-1.780026 24.013212,12.817881 28.564712,11.910432 4.55149,-0.907448 17.20229,-21.96039938 21.84295,-21.96039938 4.64066,0 17.29147,21.05295238 21.84297,21.96040138 4.55149,0.907448 24.27728,-13.6904623 28.56469,-11.910436 4.28741,1.780023 7.93727,26.0829 11.79584,28.667095 3.85857,2.584194 27.65627,-3.336274 30.93771,-0.04722 3.28144,3.289057 -2.62532,27.141964 -0.0471,31.009487 2.57821,3.867519 26.82484,7.525828 28.60075,11.823187 1.7759,4.29736 -12.78822,24.068914 -11.88288,28.630964 0.90535,4.56205 25.19602,18.60958 21.90958,21.89362 l -21.90958,21.89364 -87.96902,88.17307 c -3.28144,3.28905 -17.20229,21.9604 -21.84295,21.9604 z"
       sodipodi:nodetypes="sscssssssssssssssssscss" />
    <path
       id="path51"
       style="fill:#ffffff;stroke:#ffffff;stroke-width:0.529168;stroke-opacity:0"
       inkscape:transform-center-x="-1.5291177e-05"
       d="m 132.29168,257.70421 c -4.40817,0 -17.63159,-17.73591 -20.74863,-20.86018 L 27.98129,153.08844 7.1693876,132.29169 C 4.0476001,129.17217 27.121302,115.82843 27.981292,111.49493 28.841282,107.16144 15.006822,88.380455 16.693754,84.298396 18.380685,80.216335 41.412557,76.741298 43.861603,73.06754 c 2.449044,-3.673758 -3.161792,-26.331622 -0.04475,-29.455895 3.117044,-3.124273 25.722481,2.499571 29.387735,0.04484 3.665256,-2.454725 7.132241,-25.540018 11.204854,-27.230862 4.072616,-1.690846 22.810148,12.175703 27.133618,11.313717 4.32346,-0.861985 16.34045,-20.860179 20.74861,-20.860179 4.40816,0 16.42516,19.998195 20.74863,20.860181 4.32346,0.861985 23.06099,-13.004567 27.1336,-11.313721 4.07261,1.690844 7.53961,24.776142 11.20486,27.230868 3.66526,2.454725 26.27069,-3.169126 29.38773,-0.04485 3.11704,3.124274 -2.49379,25.782146 -0.0447,29.455905 2.44904,3.673756 25.48091,7.148783 27.16784,11.230843 1.68693,4.082062 -12.14752,22.863053 -11.28754,27.196553 0.85999,4.33349 23.93369,17.67723 20.8119,20.79674 l -20.8119,20.79676 -83.56176,83.75559 c -3.11704,3.12426 -16.34045,20.86018 -20.74861,20.86018 z"
       sodipodi:nodetypes="sscssssssssssssssssscss" />
    <text
       xml:space="preserve"
       style="font-style:normal;font-weight:normal;font-size:63.4998px;line-height:1.25;font-family:sans-serif;fill:#000000;fill-opacity:1;stroke:none;stroke-width:0.264582"
       x="54.265682"
       y="156.13512"
       id="text2107"><tspan
         sodipodi:role="line"
         id="tspan2105"
         style="font-style:italic;font-variant:normal;font-weight:normal;font-stretch:normal;font-family:monospace;-inkscape-font-specification:'monospace Italic';stroke-width:0.264582"
         x="54.265682"
         y="156.13512">clam</tspan></text>
  </g>
</svg>
